<mxfile host="app.diagrams.net" agent="Mozilla/5.0 (X11; Linux x86_64) AppleWebKit/537.36 (KHTML, like Gecko) Chrome/128.0.0.0 Safari/537.36" version="24.7.15">
  <diagram name="PÃ¡gina-1" id="bmwapIszxQ8XBMcd3hEA">
    <mxGraphModel dx="1233" dy="1927" grid="1" gridSize="10" guides="1" tooltips="1" connect="1" arrows="1" fold="1" page="1" pageScale="1" pageWidth="827" pageHeight="1169" math="0" shadow="0">
      <root>
        <mxCell id="0" />
        <mxCell id="1" parent="0" />
        <mxCell id="N-jHGbmamPqr5W5bOFpN-6" value="" style="edgeStyle=orthogonalEdgeStyle;rounded=0;orthogonalLoop=1;jettySize=auto;html=1;" edge="1" parent="1" source="iN7qak1h7AApPZTd8GBF-2" target="N-jHGbmamPqr5W5bOFpN-5">
          <mxGeometry relative="1" as="geometry" />
        </mxCell>
        <mxCell id="iN7qak1h7AApPZTd8GBF-2" value="" style="strokeWidth=1;shadow=0;dashed=0;align=center;html=1;shape=mxgraph.mockup.containers.browserWindow;rSize=0;strokeColor=#666666;strokeColor2=#008cff;strokeColor3=#c4c4c4;mainText=,;recursiveResize=0;" parent="1" vertex="1">
          <mxGeometry x="140" y="120" width="970" height="650" as="geometry" />
        </mxCell>
        <mxCell id="iN7qak1h7AApPZTd8GBF-3" value="Page 1" style="strokeWidth=1;shadow=0;dashed=0;align=center;html=1;shape=mxgraph.mockup.containers.anchor;fontSize=17;fontColor=#666666;align=left;whiteSpace=wrap;" parent="iN7qak1h7AApPZTd8GBF-2" vertex="1">
          <mxGeometry x="60" y="12" width="110" height="26" as="geometry" />
        </mxCell>
        <mxCell id="iN7qak1h7AApPZTd8GBF-4" value="https://www.draw.io" style="strokeWidth=1;shadow=0;dashed=0;align=center;html=1;shape=mxgraph.mockup.containers.anchor;rSize=0;fontSize=17;fontColor=#666666;align=left;" parent="iN7qak1h7AApPZTd8GBF-2" vertex="1">
          <mxGeometry x="130" y="60" width="250" height="26" as="geometry" />
        </mxCell>
        <mxCell id="iN7qak1h7AApPZTd8GBF-5" value="" style="verticalLabelPosition=bottom;verticalAlign=top;html=1;shape=mxgraph.basic.rect;fillColor2=none;strokeWidth=1;size=20;indent=5;" parent="iN7qak1h7AApPZTd8GBF-2" vertex="1">
          <mxGeometry x="360" y="180" width="250" height="400" as="geometry" />
        </mxCell>
        <mxCell id="iN7qak1h7AApPZTd8GBF-6" value="" style="verticalLabelPosition=bottom;verticalAlign=top;html=1;shape=mxgraph.basic.rect;fillColor2=none;strokeWidth=1;size=20;indent=3.33;" parent="iN7qak1h7AApPZTd8GBF-2" vertex="1">
          <mxGeometry x="380" y="200" width="210" height="180" as="geometry" />
        </mxCell>
        <mxCell id="iN7qak1h7AApPZTd8GBF-8" value="" style="verticalLabelPosition=bottom;verticalAlign=top;html=1;shape=mxgraph.basic.rect;fillColor2=none;strokeWidth=1;size=20;indent=5;fillColor=#e1d5e7;strokeColor=#9673a6;" parent="iN7qak1h7AApPZTd8GBF-2" vertex="1">
          <mxGeometry x="380" y="400" width="120" height="20" as="geometry" />
        </mxCell>
        <mxCell id="iN7qak1h7AApPZTd8GBF-9" value="" style="verticalLabelPosition=bottom;verticalAlign=top;html=1;shape=mxgraph.basic.rect;fillColor2=none;strokeWidth=1;size=20;indent=5;fillColor=#e1d5e7;strokeColor=#9673a6;" parent="iN7qak1h7AApPZTd8GBF-2" vertex="1">
          <mxGeometry x="380" y="430" width="210" height="50" as="geometry" />
        </mxCell>
        <mxCell id="iN7qak1h7AApPZTd8GBF-10" value="" style="verticalLabelPosition=bottom;verticalAlign=top;html=1;shape=mxgraph.basic.rect;fillColor2=none;strokeWidth=1;size=20;indent=5;fillColor=#e1d5e7;strokeColor=#9673a6;" parent="iN7qak1h7AApPZTd8GBF-2" vertex="1">
          <mxGeometry x="380" y="500" width="70" height="20" as="geometry" />
        </mxCell>
        <mxCell id="iN7qak1h7AApPZTd8GBF-11" value="" style="verticalLabelPosition=bottom;verticalAlign=top;html=1;shape=mxgraph.basic.rect;fillColor2=none;strokeWidth=1;size=20;indent=5;fillColor=#e1d5e7;strokeColor=#9673a6;" parent="iN7qak1h7AApPZTd8GBF-2" vertex="1">
          <mxGeometry x="520" y="500" width="70" height="20" as="geometry" />
        </mxCell>
        <mxCell id="iN7qak1h7AApPZTd8GBF-12" value="" style="ellipse;whiteSpace=wrap;html=1;aspect=fixed;" parent="iN7qak1h7AApPZTd8GBF-2" vertex="1">
          <mxGeometry x="380" y="530" width="30" height="30" as="geometry" />
        </mxCell>
        <mxCell id="iN7qak1h7AApPZTd8GBF-13" value="" style="verticalLabelPosition=bottom;verticalAlign=top;html=1;shape=mxgraph.basic.rect;fillColor2=none;strokeWidth=1;size=20;indent=5;fillColor=#e1d5e7;strokeColor=#9673a6;" parent="iN7qak1h7AApPZTd8GBF-2" vertex="1">
          <mxGeometry x="420" y="535" width="170" height="20" as="geometry" />
        </mxCell>
        <mxCell id="iN7qak1h7AApPZTd8GBF-34" value="" style="shape=mxgraph.sysml.x;" parent="iN7qak1h7AApPZTd8GBF-2" vertex="1">
          <mxGeometry x="395" y="220" width="180" height="140" as="geometry" />
        </mxCell>
        <mxCell id="iN7qak1h7AApPZTd8GBF-15" value="" style="strokeWidth=1;shadow=0;dashed=0;align=center;html=1;shape=mxgraph.mockup.containers.browserWindow;rSize=0;strokeColor=#666666;strokeColor2=#008cff;strokeColor3=#c4c4c4;mainText=,;recursiveResize=0;" parent="1" vertex="1">
          <mxGeometry x="160" y="870" width="300" height="650" as="geometry" />
        </mxCell>
        <mxCell id="iN7qak1h7AApPZTd8GBF-16" value="Page 1" style="strokeWidth=1;shadow=0;dashed=0;align=center;html=1;shape=mxgraph.mockup.containers.anchor;fontSize=17;fontColor=#666666;align=left;whiteSpace=wrap;" parent="iN7qak1h7AApPZTd8GBF-15" vertex="1">
          <mxGeometry x="60" y="12" width="110" height="26" as="geometry" />
        </mxCell>
        <mxCell id="iN7qak1h7AApPZTd8GBF-17" value="https://www.draw.io" style="strokeWidth=1;shadow=0;dashed=0;align=center;html=1;shape=mxgraph.mockup.containers.anchor;rSize=0;fontSize=17;fontColor=#666666;align=left;" parent="iN7qak1h7AApPZTd8GBF-15" vertex="1">
          <mxGeometry x="130" y="60" width="250" height="26" as="geometry" />
        </mxCell>
        <mxCell id="iN7qak1h7AApPZTd8GBF-18" value="" style="verticalLabelPosition=bottom;verticalAlign=top;html=1;shape=mxgraph.basic.rect;fillColor2=none;strokeWidth=1;size=20;indent=5;" parent="iN7qak1h7AApPZTd8GBF-15" vertex="1">
          <mxGeometry x="25" y="160" width="250" height="400" as="geometry" />
        </mxCell>
        <mxCell id="iN7qak1h7AApPZTd8GBF-20" value="" style="verticalLabelPosition=bottom;verticalAlign=top;html=1;shape=mxgraph.basic.rect;fillColor2=none;strokeWidth=1;size=20;indent=5;fillColor=#e1d5e7;strokeColor=#9673a6;" parent="iN7qak1h7AApPZTd8GBF-15" vertex="1">
          <mxGeometry x="45" y="380" width="120" height="20" as="geometry" />
        </mxCell>
        <mxCell id="iN7qak1h7AApPZTd8GBF-21" value="" style="verticalLabelPosition=bottom;verticalAlign=top;html=1;shape=mxgraph.basic.rect;fillColor2=none;strokeWidth=1;size=20;indent=5;fillColor=#e1d5e7;strokeColor=#9673a6;" parent="iN7qak1h7AApPZTd8GBF-15" vertex="1">
          <mxGeometry x="45" y="410" width="210" height="50" as="geometry" />
        </mxCell>
        <mxCell id="iN7qak1h7AApPZTd8GBF-22" value="" style="verticalLabelPosition=bottom;verticalAlign=top;html=1;shape=mxgraph.basic.rect;fillColor2=none;strokeWidth=1;size=20;indent=5;fillColor=#e1d5e7;strokeColor=#9673a6;" parent="iN7qak1h7AApPZTd8GBF-15" vertex="1">
          <mxGeometry x="45" y="480" width="70" height="20" as="geometry" />
        </mxCell>
        <mxCell id="iN7qak1h7AApPZTd8GBF-24" value="" style="ellipse;whiteSpace=wrap;html=1;aspect=fixed;" parent="iN7qak1h7AApPZTd8GBF-15" vertex="1">
          <mxGeometry x="45" y="510" width="30" height="30" as="geometry" />
        </mxCell>
        <mxCell id="iN7qak1h7AApPZTd8GBF-25" value="" style="verticalLabelPosition=bottom;verticalAlign=top;html=1;shape=mxgraph.basic.rect;fillColor2=none;strokeWidth=1;size=20;indent=5;fillColor=#e1d5e7;strokeColor=#9673a6;" parent="iN7qak1h7AApPZTd8GBF-15" vertex="1">
          <mxGeometry x="85" y="515" width="170" height="20" as="geometry" />
        </mxCell>
        <mxCell id="iN7qak1h7AApPZTd8GBF-23" value="" style="verticalLabelPosition=bottom;verticalAlign=top;html=1;shape=mxgraph.basic.rect;fillColor2=none;strokeWidth=1;size=20;indent=5;fillColor=#e1d5e7;strokeColor=#9673a6;" parent="iN7qak1h7AApPZTd8GBF-15" vertex="1">
          <mxGeometry x="185" y="480" width="70" height="20" as="geometry" />
        </mxCell>
        <mxCell id="iN7qak1h7AApPZTd8GBF-19" value="" style="verticalLabelPosition=bottom;verticalAlign=top;html=1;shape=mxgraph.basic.rect;fillColor2=none;strokeWidth=1;size=20;indent=3.33;" parent="iN7qak1h7AApPZTd8GBF-15" vertex="1">
          <mxGeometry x="44" y="176.25" width="210" height="180" as="geometry" />
        </mxCell>
        <mxCell id="iN7qak1h7AApPZTd8GBF-33" value="" style="shape=mxgraph.sysml.x;" parent="iN7qak1h7AApPZTd8GBF-15" vertex="1">
          <mxGeometry x="56.25" y="176.25" width="187.5" height="167.5" as="geometry" />
        </mxCell>
        <mxCell id="N-jHGbmamPqr5W5bOFpN-4" value="" style="edgeStyle=orthogonalEdgeStyle;rounded=0;orthogonalLoop=1;jettySize=auto;html=1;entryX=0.573;entryY=0.001;entryDx=0;entryDy=0;entryPerimeter=0;" edge="1" parent="1" source="N-jHGbmamPqr5W5bOFpN-1" target="iN7qak1h7AApPZTd8GBF-2">
          <mxGeometry relative="1" as="geometry">
            <mxPoint x="695" y="-90" as="targetPoint" />
          </mxGeometry>
        </mxCell>
        <mxCell id="N-jHGbmamPqr5W5bOFpN-1" value="&lt;font style=&quot;font-size: 38px;&quot;&gt;Card NFT&lt;/font&gt;" style="rounded=0;whiteSpace=wrap;html=1;" vertex="1" parent="1">
          <mxGeometry x="250" y="-230" width="890" height="60" as="geometry" />
        </mxCell>
        <mxCell id="N-jHGbmamPqr5W5bOFpN-5" value="" style="shape=singleArrow;whiteSpace=wrap;html=1;arrowWidth=0.4;arrowSize=0.4;strokeColor=#666666;strokeWidth=1;shadow=0;dashed=0;rotation=-180;" vertex="1" parent="1">
          <mxGeometry x="585" y="1160" width="80" height="60" as="geometry" />
        </mxCell>
        <mxCell id="N-jHGbmamPqr5W5bOFpN-7" value="&lt;font style=&quot;font-size: 24px;&quot;&gt;em Telas de celulares&lt;/font&gt;" style="whiteSpace=wrap;html=1;" vertex="1" parent="1">
          <mxGeometry x="650" y="830" width="270" height="60" as="geometry" />
        </mxCell>
        <mxCell id="N-jHGbmamPqr5W5bOFpN-8" value="" style="strokeWidth=1;shadow=0;dashed=0;align=center;html=1;shape=mxgraph.mockup.containers.browserWindow;rSize=0;strokeColor=#666666;strokeColor2=#008cff;strokeColor3=#c4c4c4;mainText=,;recursiveResize=0;" vertex="1" parent="1">
          <mxGeometry x="1870" y="120" width="970" height="650" as="geometry" />
        </mxCell>
        <mxCell id="N-jHGbmamPqr5W5bOFpN-9" value="Page 1" style="strokeWidth=1;shadow=0;dashed=0;align=center;html=1;shape=mxgraph.mockup.containers.anchor;fontSize=17;fontColor=#666666;align=left;whiteSpace=wrap;" vertex="1" parent="N-jHGbmamPqr5W5bOFpN-8">
          <mxGeometry x="60" y="12" width="110" height="26" as="geometry" />
        </mxCell>
        <mxCell id="N-jHGbmamPqr5W5bOFpN-10" value="https://www.draw.io" style="strokeWidth=1;shadow=0;dashed=0;align=center;html=1;shape=mxgraph.mockup.containers.anchor;rSize=0;fontSize=17;fontColor=#666666;align=left;" vertex="1" parent="N-jHGbmamPqr5W5bOFpN-8">
          <mxGeometry x="130" y="60" width="250" height="26" as="geometry" />
        </mxCell>
        <mxCell id="N-jHGbmamPqr5W5bOFpN-11" value="" style="verticalLabelPosition=bottom;verticalAlign=top;html=1;shape=mxgraph.basic.rect;fillColor2=none;strokeWidth=1;size=20;indent=5;" vertex="1" parent="N-jHGbmamPqr5W5bOFpN-8">
          <mxGeometry x="360" y="300" width="250" height="260" as="geometry" />
        </mxCell>
        <mxCell id="N-jHGbmamPqr5W5bOFpN-21" value="" style="rounded=0;whiteSpace=wrap;html=1;fillColor=#ffe6cc;strokeColor=#d79b00;" vertex="1" parent="N-jHGbmamPqr5W5bOFpN-8">
          <mxGeometry x="360" y="170" width="250" height="130" as="geometry" />
        </mxCell>
        <mxCell id="N-jHGbmamPqr5W5bOFpN-22" value="" style="shape=document;whiteSpace=wrap;html=1;boundedLbl=1;fillColor=#dae8fc;strokeColor=#6c8ebf;" vertex="1" parent="N-jHGbmamPqr5W5bOFpN-8">
          <mxGeometry x="425" y="195" width="120" height="80" as="geometry" />
        </mxCell>
        <mxCell id="N-jHGbmamPqr5W5bOFpN-24" value="" style="rounded=0;whiteSpace=wrap;html=1;fillColor=#dae8fc;strokeColor=#6c8ebf;" vertex="1" parent="N-jHGbmamPqr5W5bOFpN-8">
          <mxGeometry x="425" y="310" width="120" height="20" as="geometry" />
        </mxCell>
        <mxCell id="N-jHGbmamPqr5W5bOFpN-25" value="" style="rounded=0;whiteSpace=wrap;html=1;fillColor=#dae8fc;strokeColor=#6c8ebf;" vertex="1" parent="N-jHGbmamPqr5W5bOFpN-8">
          <mxGeometry x="390" y="340" width="190" height="60" as="geometry" />
        </mxCell>
        <mxCell id="N-jHGbmamPqr5W5bOFpN-26" value="" style="rounded=1;whiteSpace=wrap;html=1;" vertex="1" parent="N-jHGbmamPqr5W5bOFpN-8">
          <mxGeometry x="390" y="410" width="190" height="60" as="geometry" />
        </mxCell>
        <mxCell id="N-jHGbmamPqr5W5bOFpN-28" value="" style="ellipse;whiteSpace=wrap;html=1;aspect=fixed;fillColor=#ffe6cc;strokeColor=#d79b00;" vertex="1" parent="N-jHGbmamPqr5W5bOFpN-8">
          <mxGeometry x="400" y="425" width="30" height="30" as="geometry" />
        </mxCell>
        <mxCell id="N-jHGbmamPqr5W5bOFpN-29" value="" style="rounded=0;whiteSpace=wrap;html=1;fillColor=#dae8fc;strokeColor=#6c8ebf;" vertex="1" parent="N-jHGbmamPqr5W5bOFpN-8">
          <mxGeometry x="440" y="425" width="40" height="10" as="geometry" />
        </mxCell>
        <mxCell id="N-jHGbmamPqr5W5bOFpN-30" value="" style="rounded=0;whiteSpace=wrap;html=1;fillColor=#dae8fc;strokeColor=#6c8ebf;" vertex="1" parent="N-jHGbmamPqr5W5bOFpN-8">
          <mxGeometry x="440" y="445" width="40" height="10" as="geometry" />
        </mxCell>
        <mxCell id="N-jHGbmamPqr5W5bOFpN-33" value="" style="rounded=0;whiteSpace=wrap;html=1;fillColor=#dae8fc;strokeColor=#6c8ebf;" vertex="1" parent="N-jHGbmamPqr5W5bOFpN-8">
          <mxGeometry x="530" y="435" width="40" height="10" as="geometry" />
        </mxCell>
        <mxCell id="N-jHGbmamPqr5W5bOFpN-34" value="" style="shape=tape;whiteSpace=wrap;html=1;fillColor=#dae8fc;strokeColor=#6c8ebf;" vertex="1" parent="N-jHGbmamPqr5W5bOFpN-8">
          <mxGeometry x="400" y="430" width="30" height="20" as="geometry" />
        </mxCell>
        <mxCell id="N-jHGbmamPqr5W5bOFpN-35" value="" style="rounded=1;whiteSpace=wrap;html=1;shadow=0;fillColor=#f8cecc;strokeColor=#b85450;" vertex="1" parent="N-jHGbmamPqr5W5bOFpN-8">
          <mxGeometry x="390" y="490" width="190" height="30" as="geometry" />
        </mxCell>
        <mxCell id="N-jHGbmamPqr5W5bOFpN-36" value="" style="rounded=0;whiteSpace=wrap;html=1;fillColor=#dae8fc;strokeColor=#6c8ebf;" vertex="1" parent="N-jHGbmamPqr5W5bOFpN-8">
          <mxGeometry x="435" y="530" width="100" height="10" as="geometry" />
        </mxCell>
        <mxCell id="N-jHGbmamPqr5W5bOFpN-37" value="" style="strokeWidth=1;shadow=0;dashed=0;align=center;html=1;shape=mxgraph.mockup.containers.browserWindow;rSize=0;strokeColor=#666666;strokeColor2=#008cff;strokeColor3=#c4c4c4;mainText=,;recursiveResize=0;" vertex="1" parent="1">
          <mxGeometry x="2300" y="880" width="380" height="650" as="geometry" />
        </mxCell>
        <mxCell id="N-jHGbmamPqr5W5bOFpN-38" value="Page 1" style="strokeWidth=1;shadow=0;dashed=0;align=center;html=1;shape=mxgraph.mockup.containers.anchor;fontSize=17;fontColor=#666666;align=left;whiteSpace=wrap;" vertex="1" parent="N-jHGbmamPqr5W5bOFpN-37">
          <mxGeometry x="60" y="12" width="110" height="26" as="geometry" />
        </mxCell>
        <mxCell id="N-jHGbmamPqr5W5bOFpN-39" value="https://www.draw.io" style="strokeWidth=1;shadow=0;dashed=0;align=center;html=1;shape=mxgraph.mockup.containers.anchor;rSize=0;fontSize=17;fontColor=#666666;align=left;" vertex="1" parent="N-jHGbmamPqr5W5bOFpN-37">
          <mxGeometry x="130" y="60" width="250" height="26" as="geometry" />
        </mxCell>
        <mxCell id="N-jHGbmamPqr5W5bOFpN-40" value="" style="verticalLabelPosition=bottom;verticalAlign=top;html=1;shape=mxgraph.basic.rect;fillColor2=none;strokeWidth=1;size=20;indent=5;" vertex="1" parent="N-jHGbmamPqr5W5bOFpN-37">
          <mxGeometry x="70" y="300" width="250" height="260" as="geometry" />
        </mxCell>
        <mxCell id="N-jHGbmamPqr5W5bOFpN-41" value="" style="rounded=0;whiteSpace=wrap;html=1;fillColor=#ffe6cc;strokeColor=#d79b00;" vertex="1" parent="N-jHGbmamPqr5W5bOFpN-37">
          <mxGeometry x="70" y="170" width="250" height="130" as="geometry" />
        </mxCell>
        <mxCell id="N-jHGbmamPqr5W5bOFpN-42" value="" style="shape=document;whiteSpace=wrap;html=1;boundedLbl=1;fillColor=#dae8fc;strokeColor=#6c8ebf;" vertex="1" parent="N-jHGbmamPqr5W5bOFpN-37">
          <mxGeometry x="135" y="195" width="120" height="80" as="geometry" />
        </mxCell>
        <mxCell id="N-jHGbmamPqr5W5bOFpN-43" value="" style="rounded=0;whiteSpace=wrap;html=1;fillColor=#dae8fc;strokeColor=#6c8ebf;" vertex="1" parent="N-jHGbmamPqr5W5bOFpN-37">
          <mxGeometry x="135" y="310" width="120" height="20" as="geometry" />
        </mxCell>
        <mxCell id="N-jHGbmamPqr5W5bOFpN-44" value="" style="rounded=0;whiteSpace=wrap;html=1;fillColor=#dae8fc;strokeColor=#6c8ebf;" vertex="1" parent="N-jHGbmamPqr5W5bOFpN-37">
          <mxGeometry x="100" y="340" width="190" height="60" as="geometry" />
        </mxCell>
        <mxCell id="N-jHGbmamPqr5W5bOFpN-45" value="" style="rounded=1;whiteSpace=wrap;html=1;" vertex="1" parent="N-jHGbmamPqr5W5bOFpN-37">
          <mxGeometry x="100" y="410" width="190" height="60" as="geometry" />
        </mxCell>
        <mxCell id="N-jHGbmamPqr5W5bOFpN-46" value="" style="ellipse;whiteSpace=wrap;html=1;aspect=fixed;fillColor=#ffe6cc;strokeColor=#d79b00;" vertex="1" parent="N-jHGbmamPqr5W5bOFpN-37">
          <mxGeometry x="110" y="425" width="30" height="30" as="geometry" />
        </mxCell>
        <mxCell id="N-jHGbmamPqr5W5bOFpN-47" value="" style="rounded=0;whiteSpace=wrap;html=1;fillColor=#dae8fc;strokeColor=#6c8ebf;" vertex="1" parent="N-jHGbmamPqr5W5bOFpN-37">
          <mxGeometry x="150" y="425" width="40" height="10" as="geometry" />
        </mxCell>
        <mxCell id="N-jHGbmamPqr5W5bOFpN-48" value="" style="rounded=0;whiteSpace=wrap;html=1;fillColor=#dae8fc;strokeColor=#6c8ebf;" vertex="1" parent="N-jHGbmamPqr5W5bOFpN-37">
          <mxGeometry x="150" y="445" width="40" height="10" as="geometry" />
        </mxCell>
        <mxCell id="N-jHGbmamPqr5W5bOFpN-49" value="" style="rounded=0;whiteSpace=wrap;html=1;fillColor=#dae8fc;strokeColor=#6c8ebf;" vertex="1" parent="N-jHGbmamPqr5W5bOFpN-37">
          <mxGeometry x="240" y="435" width="40" height="10" as="geometry" />
        </mxCell>
        <mxCell id="N-jHGbmamPqr5W5bOFpN-50" value="" style="shape=tape;whiteSpace=wrap;html=1;fillColor=#dae8fc;strokeColor=#6c8ebf;" vertex="1" parent="N-jHGbmamPqr5W5bOFpN-37">
          <mxGeometry x="110" y="430" width="30" height="20" as="geometry" />
        </mxCell>
        <mxCell id="N-jHGbmamPqr5W5bOFpN-51" value="" style="rounded=1;whiteSpace=wrap;html=1;shadow=0;fillColor=#f8cecc;strokeColor=#b85450;" vertex="1" parent="N-jHGbmamPqr5W5bOFpN-37">
          <mxGeometry x="100" y="490" width="190" height="30" as="geometry" />
        </mxCell>
        <mxCell id="N-jHGbmamPqr5W5bOFpN-52" value="" style="rounded=0;whiteSpace=wrap;html=1;fillColor=#dae8fc;strokeColor=#6c8ebf;" vertex="1" parent="N-jHGbmamPqr5W5bOFpN-37">
          <mxGeometry x="140" y="530" width="100" height="10" as="geometry" />
        </mxCell>
      </root>
    </mxGraphModel>
  </diagram>
</mxfile>
